<?xml version="1.0" encoding="UTF-8"?>
<svg width="44px" height="44px" viewBox="0 0 44 44" version="1.1" xmlns="http://www.w3.org/2000/svg" xmlns:xlink="http://www.w3.org/1999/xlink">
    <!-- Generator: Sketch 41.2 (35397) - http://www.bohemiancoding.com/sketch -->
    <title>Group 2</title>
    <desc>Created with Sketch.</desc>
    <defs></defs>
    <g id="Page-1" stroke="none" stroke-width="1" fill="none" fill-rule="evenodd">
        <g id="Artboard-3" transform="translate(-193.000000, -139.000000)">
            <g id="Group-2" transform="translate(194.000000, 140.000000)">
                <circle id="Oval-5" stroke="#FFFFFF" opacity="0.7" cx="21" cy="21" r="21"></circle>
                <g id="square-shopping-bag-with-handle" transform="translate(10.000000, 6.000000)" fill="#FFFFFF">
                    <g id="Capa_1">
                        <g id="Group">
                            <path d="M14.476788,7.874538 C14.7679473,7.874538 15.0042749,7.6290057 15.0042749,7.32514849 C15.0042749,7.02135886 14.7679473,6.77575897 14.476788,6.77575897 L7.23427352,6.77575897 C6.94311422,6.77575897 6.70678657,7.02129128 6.70678657,7.32514849 C6.70678657,7.62893811 6.94311422,7.874538 7.23427352,7.874538 L14.476788,7.874538 Z" id="Shape"></path>
                            <path d="M21.7420138,6.77582656 L18.1489511,6.77582656 C17.8577918,6.77582656 17.6214641,7.02135886 17.6214641,7.32521607 C17.6214641,7.6290057 17.8577918,7.87460559 18.1489511,7.87460559 L21.2145269,7.87460559 L21.2145269,26.4386186 L1.07191005,26.4386186 L1.07191005,7.874538 L3.96182991,7.874538 C4.25298921,7.874538 4.48931685,7.6290057 4.48931685,7.32514849 C4.48931685,7.02135886 4.25298921,6.77575897 3.96182991,6.77575897 L0.544487999,6.77575897 C0.253328703,6.77575897 0.0170010554,7.02129128 0.0170010554,7.32514849 L0.0170010554,26.9878729 C0.0170010554,27.2916626 0.253328703,27.5372624 0.544487999,27.5372624 L21.7420138,27.5372624 C22.0331731,27.5372624 22.2695008,27.2917301 22.2695008,26.9878729 L22.2695008,7.32514849 C22.2695008,7.02135886 22.0336922,6.77582656 21.7420138,6.77582656 Z" id="Shape"></path>
                            <path d="M16.2606659,9.11003926 C16.5518252,9.11003926 16.7881529,8.86450696 16.7881529,8.56064975 L16.7881529,4.5547493 C16.788088,2.04360194 14.1851096,0 10.9728835,0 C7.77331079,0 5.17085153,2.04360194 5.17085153,4.5547493 L5.17085153,8.56071733 C5.17085153,8.86450696 5.40717918,9.11010685 5.69833847,9.11010685 C5.98949777,9.11010685 6.22582542,8.86457454 6.22582542,8.56071733 L6.22582542,4.5547493 C6.22582542,2.64901851 8.35569428,1.09871145 10.9861209,1.09871145 C13.603375,1.09871145 15.7332439,2.64901851 15.7332439,4.5547493 L15.7332439,8.56071733 C15.733179,8.86450696 15.9689875,9.11003926 16.2606659,9.11003926 Z" id="Shape"></path>
                            <path d="M4.34059007,9.97308565 C4.34059007,10.7520577 4.94983781,11.3860622 5.69827358,11.3860622 C6.44670936,11.3860622 7.0559571,10.7521253 7.0559571,9.97308565 C7.0559571,9.66929603 6.81962945,9.42369614 6.52847016,9.42369614 C6.23731086,9.42369614 6.00098322,9.66922844 6.00098322,9.97308565 C6.00098322,10.146168 5.865429,10.2873508 5.69820869,10.2873508 C5.53150751,10.2873508 5.39543417,10.146168 5.39543417,9.97308565 C5.39543417,9.66929603 5.15910653,9.42369614 4.86794723,9.42369614 C4.57678793,9.42369614 4.34059007,9.66929603 4.34059007,9.97308565 Z" id="Shape"></path>
                            <path d="M16.2606659,11.3860622 C17.0091017,11.3860622 17.6183494,10.7521253 17.6183494,9.97308565 C17.6183494,9.66929603 17.3820218,9.42369614 17.0908625,9.42369614 C16.7997032,9.42369614 16.5633755,9.66922844 16.5633755,9.97308565 C16.5633755,10.146168 16.4278213,10.2873508 16.260601,10.2873508 C16.0933807,10.2873508 15.9578265,10.146168 15.9578265,9.97308565 C15.9578265,9.66929603 15.7214989,9.42369614 15.4303396,9.42369614 C15.1391803,9.42369614 14.9028526,9.66922844 14.9028526,9.97308565 C14.9029824,10.7520577 15.5121653,11.3860622 16.2606659,11.3860622 Z" id="Shape"></path>
                        </g>
                    </g>
                </g>
            </g>
        </g>
    </g>
</svg>